# xmcd
#
# Track frame offsets:
# 150
# 20032
# 34560
# 49738
# 72233
# 89093
# 108844
# 127372
# 141080
# 162732
# 196308
# 215038
#
# Disc length: 3037 seconds
#
#
# Revision: 0
# Processed by: cddbd v1.5.2PL0 Copyright (c) Steve Scherf et al.
# Submitted via: FreeRIP 2.942 
#
DISCID=bb0bdb0c
DTITLE=The Hummingbirdz - Enjoy Your Beverage
DYEAR=2008
DGENRE=Blues
TTITLE0=Birdz Shuffle
TTITLE1=Hoodoo Man
TTITLE2=Enjoy Your Beverage
TTITLE3=Good Mornin' Little School Girl
TTITLE4=Handyman
TTITLE5=Keep On Movin'
TTITLE6=Alligator
TTITLE7=Hit Man
TTITLE8=Back Door Man
TTITLE9=I Can't Quit You
TTITLE10=Lock On My Baby's Door
TTITLE11=Eye Sight To The Blind
EXTD=Copyright 2008 - Enliven Publishing\nDon Haag - Vocals, Harmonica\nJim Ashburn - Vocals, Guitar\nBob White - Lead Guitar\nFrank Inzerillo - Bass Guitar\nTom Zendarski - Drums
EXTT0=
EXTT1=
EXTT2=
EXTT3=
EXTT4=
EXTT5=
EXTT6=
EXTT7=
EXTT8=
EXTT9=
EXTT10=
EXTT11=
PLAYORDER=
